<svg width="75" height="75" viewBox="0 0 75 75" fill="none" xmlns="http://www.w3.org/2000/svg">
<path d="M57.5898 17.754H49.8691L40.3506 14.6485C39.779 14.4615 39.1729 14.4042 38.5764 14.4809C37.9799 14.5576 37.408 14.7663 36.9023 15.0919L31.167 18.7764C31.1051 18.8161 31.0517 18.8676 31.0097 18.928C30.9677 18.9883 30.938 19.0563 30.9223 19.1282C30.9066 19.2 30.9053 19.2742 30.9183 19.3465C30.9312 19.4189 30.9584 19.488 30.998 19.5499C31.0377 19.6117 31.0892 19.6652 31.1496 19.7072C31.2099 19.7491 31.278 19.7788 31.3498 19.7945C31.4216 19.8102 31.4958 19.8116 31.5682 19.7986C31.6405 19.7856 31.7096 19.7585 31.7715 19.7188L37.5068 16.0391C37.8731 15.8039 38.2873 15.6534 38.7191 15.5987C39.1509 15.5439 39.5896 15.5863 40.0029 15.7227L49.6094 18.8477C49.6652 18.866 49.7235 18.8753 49.7822 18.8751H57.0313V28.2803H52.8662C52.7636 28.2805 52.663 28.3087 52.5753 28.3621C52.4877 28.4155 52.4163 28.4919 52.3691 28.5831C51.7418 29.6443 50.7836 30.4704 49.6416 30.9346V28.418C50.5391 28.0352 51.4971 27.3692 52.1084 26.2081C52.1428 26.1429 52.1641 26.0716 52.171 25.9983C52.1779 25.9249 52.1702 25.8509 52.1485 25.7805C52.1268 25.7101 52.0914 25.6446 52.0444 25.5879C51.9974 25.5311 51.9397 25.4842 51.8745 25.4498C51.8094 25.4153 51.7381 25.3941 51.6647 25.3872C51.5913 25.3803 51.5173 25.3879 51.4469 25.4097C51.3765 25.4314 51.3111 25.4668 51.2543 25.5138C51.1976 25.5608 51.1506 25.6185 51.1162 25.6836C50.0518 27.7188 47.4053 27.8096 47.3906 27.8096C43.8457 27.8096 42.8223 25.335 42.7812 25.2325C42.7406 25.1268 42.669 25.036 42.5757 24.9718C42.4825 24.9077 42.372 24.8733 42.2588 24.8731H36.998C36.7986 24.8782 36.6001 24.8433 36.4143 24.7705C36.2285 24.6977 36.0591 24.5884 35.9162 24.4491C35.7733 24.3098 35.6598 24.1433 35.5822 23.9594C35.5047 23.7756 35.4647 23.578 35.4647 23.3785C35.4647 23.1789 35.5047 22.9814 35.5822 22.7975C35.6598 22.6136 35.7733 22.4471 35.9162 22.3078C36.0591 22.1685 36.2285 22.0593 36.4143 21.9865C36.6001 21.9136 36.7986 21.8787 36.998 21.8838H43.2773C43.3529 21.887 43.4282 21.8748 43.4989 21.8481C43.5696 21.8214 43.6342 21.7807 43.6887 21.7283C43.7433 21.676 43.7867 21.6132 43.8163 21.5437C43.846 21.4742 43.8613 21.3994 43.8613 21.3238C43.8613 21.2482 43.846 21.1734 43.8163 21.1039C43.7867 21.0344 43.7433 20.9716 43.6887 20.9192C43.6342 20.8669 43.5696 20.8262 43.4989 20.7994C43.4282 20.7727 43.3529 20.7606 43.2773 20.7637H36.998C36.6504 20.757 36.3049 20.8197 35.9818 20.9481C35.6587 21.0764 35.3644 21.268 35.1162 21.5114C34.868 21.7549 34.6708 22.0454 34.5362 22.366C34.4016 22.6866 34.3323 23.0308 34.3323 23.3785C34.3323 23.7262 34.4016 24.0704 34.5362 24.3909C34.6708 24.7115 34.868 25.002 35.1162 25.2455C35.3644 25.489 35.6587 25.6805 35.9818 25.8089C36.3049 25.9373 36.6504 25.9999 36.998 25.9932H41.9082C42.376 26.8516 43.874 28.9297 47.4023 28.9297C47.7794 28.913 48.1541 28.861 48.5215 28.7745V37.0753C48.5212 37.2943 48.4341 37.5043 48.2792 37.6592C48.1243 37.814 47.9143 37.9012 47.6953 37.9014H18.7959C18.5771 37.9012 18.3673 37.8143 18.2123 37.6599C18.0574 37.5055 17.9698 37.296 17.9688 37.0772V22.71C17.969 22.491 18.0561 22.281 18.211 22.1261C18.3659 21.9712 18.5759 21.8841 18.7949 21.8838H33.0752C33.1507 21.887 33.2261 21.8748 33.2968 21.8481C33.3675 21.8214 33.432 21.7807 33.4866 21.7283C33.5411 21.676 33.5845 21.6132 33.6142 21.5437C33.6438 21.4742 33.6591 21.3994 33.6591 21.3238C33.6591 21.2482 33.6438 21.1734 33.6142 21.1039C33.5845 21.0344 33.5411 20.9716 33.4866 20.9192C33.432 20.8669 33.3675 20.8262 33.2968 20.7994C33.2261 20.7727 33.1507 20.7606 33.0752 20.7637H18.7959C18.2803 20.7655 17.7863 20.9712 17.4217 21.3358C17.057 21.7004 16.8514 22.1944 16.8496 22.71V37.0772C16.8514 37.5928 17.057 38.0868 17.4217 38.4514C17.7863 38.8161 18.2803 39.0217 18.7959 39.0235H47.6953C48.2109 39.0217 48.7049 38.8161 49.0696 38.4514C49.4342 38.0868 49.6398 37.5928 49.6416 37.0772V32.1211C51.6494 31.4815 52.7734 30.0333 53.1836 29.3995H57.5898C57.7383 29.3995 57.8808 29.3405 57.9859 29.2356C58.091 29.1307 58.1501 28.9884 58.1504 28.8399V18.3145C58.1504 18.1658 58.0913 18.0233 57.9862 17.9181C57.8811 17.813 57.7385 17.754 57.5898 17.754Z" fill="#1F5482"/>
<path d="M20.6475 32.8447V26.9414C21.2366 26.8282 21.7783 26.5409 22.2026 26.1166C22.6268 25.6924 22.9141 25.1507 23.0273 24.5615H32.5908C32.7353 24.5555 32.8719 24.4938 32.972 24.3895C33.0721 24.2851 33.128 24.1461 33.128 24.0015C33.128 23.8568 33.0721 23.7178 32.972 23.6135C32.8719 23.5091 32.7353 23.4474 32.5908 23.4414H22.5205C22.3718 23.4414 22.2293 23.5005 22.1241 23.6056C22.019 23.7107 21.96 23.8533 21.96 24.002C21.9603 24.2481 21.9122 24.492 21.8183 24.7196C21.7245 24.9471 21.5867 25.154 21.4128 25.3283C21.2389 25.5026 21.0325 25.6409 20.8051 25.7354C20.5778 25.8299 20.3341 25.8786 20.0879 25.8789C19.9407 25.8799 19.7999 25.9388 19.6958 26.0427C19.5916 26.1467 19.5325 26.2874 19.5313 26.4346V33.3525C19.5312 33.4261 19.5458 33.4989 19.5739 33.5669C19.6021 33.6349 19.6434 33.6966 19.6955 33.7486C19.7476 33.8005 19.8094 33.8417 19.8774 33.8698C19.9454 33.8979 20.0182 33.9122 20.0918 33.9121C20.5882 33.9129 21.0641 34.1105 21.415 34.4616C21.766 34.8128 21.9634 35.2887 21.9639 35.7852C21.9639 35.8587 21.9784 35.9316 22.0066 35.9995C22.0347 36.0675 22.076 36.1292 22.1281 36.1812C22.1802 36.2332 22.242 36.2744 22.31 36.3024C22.378 36.3305 22.4508 36.3449 22.5244 36.3447H43.9707C44.0443 36.3449 44.1171 36.3305 44.1851 36.3024C44.2531 36.2744 44.3149 36.2332 44.367 36.1812C44.4191 36.1292 44.4604 36.0675 44.4886 35.9995C44.5167 35.9316 44.5312 35.8587 44.5312 35.7852C44.5318 35.2887 44.7291 34.8128 45.0801 34.4616C45.431 34.1105 45.9069 33.9129 46.4033 33.9121C46.4769 33.9122 46.5498 33.8979 46.6178 33.8698C46.6858 33.8417 46.7476 33.8005 46.7996 33.7486C46.8517 33.6966 46.893 33.6349 46.9212 33.5669C46.9494 33.4989 46.9639 33.4261 46.9639 33.3525V30.8213C46.967 30.7458 46.9549 30.6704 46.9281 30.5997C46.9014 30.529 46.8607 30.4644 46.8084 30.4099C46.756 30.3553 46.6932 30.3119 46.6237 30.2823C46.5542 30.2526 46.4794 30.2373 46.4038 30.2373C46.3282 30.2373 46.2534 30.2526 46.1839 30.2823C46.1144 30.3119 46.0516 30.3553 45.9993 30.4099C45.9469 30.4644 45.9062 30.529 45.8795 30.5997C45.8527 30.6704 45.8406 30.7458 45.8438 30.8213V32.8447C45.2547 32.9582 44.7131 33.2456 44.2889 33.6698C43.8647 34.094 43.5774 34.6355 43.4639 35.2246H23.0273C22.9139 34.6355 22.6265 34.094 22.2023 33.6698C21.7781 33.2456 21.2365 32.9582 20.6475 32.8447Z" fill="#1F5482"/>
<path d="M32.5098 28.0507H33.8575C34.0019 28.0447 34.1385 27.9831 34.2386 27.8787C34.3387 27.7743 34.3946 27.6353 34.3946 27.4907C34.3946 27.3461 34.3387 27.207 34.2386 27.1027C34.1385 26.9983 34.0019 26.9367 33.8575 26.9306H33.417V26.5703C33.4202 26.4948 33.408 26.4194 33.3813 26.3487C33.3546 26.278 33.3138 26.2134 33.2615 26.1589C33.2092 26.1043 33.1464 26.0609 33.0769 26.0313C33.0073 26.0016 32.9325 25.9863 32.857 25.9863C32.7814 25.9863 32.7066 26.0016 32.6371 26.0313C32.5675 26.0609 32.5047 26.1043 32.4524 26.1589C32.4001 26.2134 32.3593 26.278 32.3326 26.3487C32.3059 26.4194 32.2938 26.4948 32.2969 26.5703V26.9443C31.8365 26.9791 31.4083 27.1936 31.1047 27.5415C30.8012 27.8894 30.6467 28.3427 30.6747 28.8036C30.7026 29.2644 30.9108 29.6958 31.2542 30.0044C31.5976 30.3131 32.0486 30.4742 32.5098 30.4531H33.2032C33.3736 30.4531 33.537 30.5208 33.6575 30.6413C33.778 30.7618 33.8457 30.9252 33.8457 31.0957C33.8457 31.2661 33.778 31.4295 33.6575 31.55C33.537 31.6705 33.3736 31.7382 33.2032 31.7382H31.8575C31.7819 31.7351 31.7066 31.7472 31.6359 31.774C31.5652 31.8007 31.5006 31.8414 31.4461 31.8937C31.3915 31.9461 31.3481 32.0089 31.3184 32.0784C31.2888 32.1479 31.2735 32.2227 31.2735 32.2983C31.2735 32.3739 31.2888 32.4487 31.3184 32.5182C31.3481 32.5877 31.3915 32.6505 31.4461 32.7028C31.5006 32.7552 31.5652 32.7959 31.6359 32.8226C31.7066 32.8494 31.7819 32.8615 31.8575 32.8584H32.2969V33.2187C32.3029 33.3632 32.3646 33.4998 32.469 33.5999C32.5733 33.7 32.7123 33.7559 32.857 33.7559C33.0016 33.7559 33.1406 33.7 33.245 33.5999C33.3493 33.4998 33.411 33.3632 33.417 33.2187V32.8418C33.8778 32.8074 34.3065 32.593 34.6104 32.2449C34.9143 31.8968 35.0689 31.4431 35.0408 30.9819C35.0127 30.5207 34.8041 30.0891 34.4602 29.7805C34.1163 29.4719 33.6647 29.3111 33.2032 29.333H32.5098C32.4235 29.3363 32.3374 29.3222 32.2567 29.2915C32.176 29.2608 32.1023 29.2142 32.04 29.1543C31.9778 29.0944 31.9283 29.0226 31.8944 28.9431C31.8606 28.8637 31.8432 28.7782 31.8432 28.6918C31.8432 28.6055 31.8606 28.52 31.8944 28.4405C31.9283 28.3611 31.9778 28.2893 32.04 28.2294C32.1023 28.1695 32.176 28.1229 32.2567 28.0922C32.3374 28.0615 32.4235 28.0474 32.5098 28.0507Z" fill="#1F5482"/>
<path d="M26.6826 29.498C26.5791 29.6018 26.5202 29.742 26.5186 29.8886C26.5185 29.9257 26.5224 29.9627 26.5303 29.9989C26.5371 30.0345 26.5479 30.0693 26.5625 30.1025C26.5759 30.1369 26.5933 30.1697 26.6143 30.2001C26.634 30.2304 26.6569 30.2586 26.6826 30.2841C26.7086 30.3102 26.7371 30.3337 26.7676 30.3544C26.7984 30.3744 26.8311 30.3914 26.8652 30.4052C26.8994 30.4193 26.9346 30.4304 26.9707 30.4384C27.0068 30.4451 27.0434 30.4483 27.0801 30.4482C27.2284 30.4477 27.3705 30.3887 27.4756 30.2841C27.5016 30.2584 27.5251 30.2302 27.5459 30.2001C27.5654 30.1688 27.5827 30.1362 27.5977 30.1025C27.6106 30.0688 27.621 30.0342 27.6289 29.9989C27.6364 29.9627 27.64 29.9257 27.6397 29.8886C27.6388 29.7782 27.6053 29.6705 27.5434 29.5791C27.4815 29.4876 27.394 29.4166 27.2917 29.3748C27.1895 29.3331 27.0773 29.3225 26.969 29.3444C26.8608 29.3663 26.7615 29.4197 26.6836 29.498H26.6826Z" fill="#1F5482"/>
<path d="M38.9463 30.205C38.9673 30.235 38.9908 30.2631 39.0166 30.289C39.0749 30.3478 39.1455 30.3928 39.2234 30.4209C39.3012 30.449 39.3843 30.4594 39.4667 30.4514C39.5491 30.4433 39.6286 30.417 39.6996 30.3744C39.7706 30.3318 39.8311 30.274 39.877 30.205C39.8979 30.1746 39.9153 30.1418 39.9287 30.1074C39.9433 30.0742 39.9541 30.0395 39.9609 30.0039C39.9687 29.9682 39.9726 29.9319 39.9727 29.8955C39.9758 29.8199 39.9637 29.7446 39.9369 29.6739C39.9102 29.6032 39.8695 29.5386 39.8171 29.4841C39.7648 29.4295 39.702 29.3861 39.6325 29.3565C39.563 29.3268 39.4882 29.3115 39.4126 29.3115C39.337 29.3115 39.2622 29.3268 39.1927 29.3565C39.1232 29.3861 39.0604 29.4295 39.008 29.4841C38.9557 29.5386 38.915 29.6032 38.8883 29.6739C38.8615 29.7446 38.8494 29.8199 38.8525 29.8955C38.8527 29.9319 38.8563 29.9681 38.8633 30.0039C38.8711 30.0392 38.8818 30.0739 38.8955 30.1074C38.9097 30.1413 38.9267 30.1739 38.9463 30.205Z" fill="#1F5482"/>
<path d="M53.0771 43.5195C52.5544 43.1087 51.8964 42.909 51.2335 42.96C50.5705 43.011 49.9509 43.3089 49.4971 43.7949L45.9551 47.624C45.9016 47.6773 45.8595 47.7409 45.8312 47.8109C45.803 47.8809 45.7891 47.9559 45.7906 48.0314C45.792 48.1068 45.8087 48.1813 45.8395 48.2501C45.8704 48.319 45.9149 48.381 45.9703 48.4322C46.0258 48.4835 46.091 48.5231 46.162 48.5485C46.2331 48.574 46.3086 48.5848 46.384 48.5804C46.4593 48.5759 46.533 48.5563 46.6006 48.5227C46.6682 48.4891 46.7283 48.4421 46.7773 48.3847L50.3193 44.5556C50.5806 44.2756 50.9374 44.104 51.3193 44.0747C51.7011 44.0454 52.08 44.1606 52.3809 44.3974C52.5387 44.5227 52.67 44.6782 52.7672 44.8547C52.8644 45.0312 52.9255 45.2253 52.9471 45.4257C52.9686 45.626 52.9501 45.8287 52.8926 46.0218C52.8352 46.215 52.7399 46.3948 52.6123 46.5507L46.4463 54.0918C45.9985 54.6409 45.3606 55.0017 44.6592 55.1025L32.7236 56.83C32.1173 56.9195 31.5398 57.1474 31.0356 57.4959C30.5315 57.8444 30.1143 58.3042 29.8164 58.8398L29.4902 59.4257H18.5107L24.1982 51.0205C25.0121 49.8086 26.142 48.8425 27.4655 48.2268C28.7891 47.6111 30.2559 47.3692 31.707 47.5273C32.6694 47.6272 33.6173 47.8365 34.5322 48.1513C35.1538 48.3736 35.8086 48.4885 36.4687 48.4912H42.1768C42.6143 48.4917 43.0338 48.6657 43.3432 48.9751C43.6526 49.2845 43.8266 49.704 43.8271 50.1416C43.8266 50.6138 43.6388 51.0666 43.3049 51.4005C42.9709 51.7345 42.5182 51.9223 42.0459 51.9228H36.8164C35.9604 51.9227 35.1313 52.2218 34.4727 52.7685L33.2441 53.7881C33.1342 53.8843 33.0663 54.0197 33.0547 54.1653C33.0431 54.3109 33.0889 54.4553 33.1822 54.5678C33.2755 54.6802 33.409 54.7517 33.5543 54.7671C33.6996 54.7826 33.8451 54.7407 33.96 54.6504L35.1875 53.6308C35.6439 53.2526 36.2178 53.0454 36.8105 53.0449H42.0439C42.8131 53.0439 43.5505 52.7378 44.0944 52.194C44.6383 51.6501 44.9443 50.9127 44.9453 50.1435C44.9443 49.4091 44.6521 48.705 44.1327 48.1856C43.6134 47.6663 42.9093 47.374 42.1748 47.373H36.4687C35.936 47.3701 35.4076 47.2767 34.9062 47.0966C33.9106 46.7523 32.8788 46.5229 31.8311 46.4131C30.1771 46.232 28.505 46.5069 26.9961 47.208C25.4871 47.9091 24.1988 49.0097 23.2705 50.3906L16.9912 59.6679C16.933 59.7522 16.8991 59.8509 16.893 59.9531C16.887 60.0554 16.909 60.1573 16.9568 60.2479C17.0046 60.3385 17.0764 60.4143 17.1642 60.467C17.252 60.5197 17.3526 60.5473 17.4551 60.5468H29.8203C29.9205 60.5462 30.0186 60.5186 30.1045 60.4671C30.1904 60.4156 30.2609 60.3419 30.3086 60.2539L30.7969 59.375C31.0111 58.9903 31.3109 58.6601 31.6731 58.4098C32.0353 58.1596 32.4502 57.9959 32.8857 57.9316L44.8242 56.2109C45.803 56.0702 46.6932 55.5669 47.3184 54.8007L53.4844 47.2597C53.7065 46.989 53.8725 46.6767 53.9726 46.3412C54.0727 46.0056 54.105 45.6534 54.0676 45.3052C54.0301 44.9571 53.9237 44.6198 53.7545 44.3132C53.5852 44.0066 53.3567 43.7368 53.082 43.5195H53.0771Z" fill="#1F5482"/>
<circle cx="37.5" cy="37.5" r="36" stroke="#1F5482" stroke-width="3"/>
</svg>
