<svg width="75" height="75" viewBox="0 0 75 75" fill="none" xmlns="http://www.w3.org/2000/svg">
<path d="M20.7704 58.9286L16.4916 55.7943L43.288 16.7446C43.6053 16.2943 44.0769 16.0714 44.6986 16.0714C45.0716 16.0714 45.4017 16.1714 45.6976 16.3678C45.9505 16.5428 46.1477 16.7625 46.2978 17.0325C46.4436 17.2968 46.5551 17.5557 46.6279 17.7957C46.7008 18.035 46.7909 18.2757 46.9066 18.5075C47.0224 18.7432 47.2153 18.9575 47.4897 19.1461C47.7641 19.3389 48.1285 19.4746 48.5873 19.5664C49.3762 19.72 50.6538 20.0636 52.4245 20.5996C54.1953 21.1357 55.5115 21.4786 56.3776 21.6328C57.801 21.9932 58.5084 22.9021 58.5084 24.3553C58.5084 24.8914 58.4055 25.5261 58.1954 26.2589C57.5052 28.2914 56.9221 30.0193 56.4419 31.4425C56.3433 31.7603 56.1589 32.0128 55.8845 32.1971C55.6101 32.3828 55.2886 32.5114 54.9156 32.5828C54.5426 32.6543 54.0967 32.69 53.5693 32.69H47.0095V35.9696H43.7297V39.2496H40.4498V42.5296H37.1699V45.8093H33.89V49.0893H30.6101V52.3693H27.3302V55.6489H24.0504V58.9289H20.7705L20.7704 58.9286ZM53.2777 29.2596C54.0881 27.5446 54.5511 26.4986 54.6712 26.1253C54.714 26.0039 54.7355 25.8718 54.7355 25.7311C54.7355 25.4346 54.6497 25.165 54.4825 24.9207C54.311 24.6778 54.0623 24.5175 53.7365 24.4532L44.9601 22.0739C44.8272 22.0382 44.6986 22.0275 44.5657 22.0275C44.0169 22.0275 43.511 22.3668 43.0394 23.0436L40.1711 27.2411L53.2777 29.2603L53.2777 29.2596ZM21.2464 55.9103C21.6065 55.9103 21.9109 55.7853 22.1553 55.5328C22.3997 55.2793 22.524 54.98 22.524 54.6325C22.524 54.3932 22.4683 54.1739 22.3525 53.9764C22.2368 53.78 22.0824 53.6264 21.8852 53.5178C21.688 53.4071 21.4736 53.3535 21.2464 53.3535C20.8862 53.3535 20.5818 53.4785 20.3374 53.7307C20.093 53.9843 19.9687 54.2839 19.9687 54.6311C19.9687 54.9914 20.093 55.2957 20.346 55.54C20.599 55.7828 20.8991 55.9089 21.2464 55.9089V55.9103Z" fill="#1F5482"/>
<circle cx="37.5" cy="37.5" r="36" stroke="#1F5482" stroke-width="3"/>
</svg>
