<svg width="268" height="100" fill="none" xmlns="http://www.w3.org/2000/svg"><path d="M0 50C0 22.386 22.386 0 50 0h168c27.614 0 50 22.386 50 50s-22.386 50-50 50H50C22.386 100 0 77.614 0 50z" fill="#1F5482"/><g filter="url(#filter0_d_9_13)"><path d="M82.289 58.1c.62.12 1.08.33 1.38.63.32.3.48.65.48 1.05 0 .66-.19 1.14-.57 1.44-.36.3-.94.42-1.74.36-1.8-.14-3.21-.23-4.23-.27-1-.06-2.32-.1-3.96-.12-.74 3.68-1.42 7.38-2.04 11.1-.22 1.36-.45 2.94-.69 4.74-.24 1.78-.4 3.22-.48 4.32-.04.58-.28 1.03-.72 1.35-.44.3-.97.45-1.59.45-.66 0-1.17-.16-1.53-.48-.36-.32-.54-.74-.54-1.26 0-.48.07-1.27.21-2.37.16-1.12.34-2.29.54-3.51.22-1.22.39-2.28.51-3.18.22-1.52.47-3.03.75-4.53.28-1.5.56-2.92.84-4.26.06-.3.13-.64.21-1.02.08-.4.17-.84.27-1.32-1.96.06-3.5.22-4.62.48s-1.92.63-2.4 1.11c-.46.46-.69 1.06-.69 1.8 0 .68.2 1.33.6 1.95.08.14.12.29.12.45 0 .38-.23.74-.69 1.08-.44.32-.9.48-1.38.48-.34 0-.62-.1-.84-.3-.4-.34-.73-.82-.99-1.44-.26-.64-.39-1.36-.39-2.16 0-1.7.55-3.06 1.65-4.08 1.12-1.04 2.81-1.8 5.07-2.28 2.28-.48 5.2-.72 8.76-.72 2.2 0 3.95.04 5.25.12 1.32.08 2.47.21 3.45.39zm-.72 25.05c-.9 0-1.64-.41-2.22-1.23-.56-.84-.84-1.88-.84-3.12 0-1.5.1-2.87.3-4.11.2-1.26.53-2.59.99-3.99.2-.6.48-1.03.84-1.29s.93-.39 1.71-.39c.44 0 .74.07.9.21.18.14.27.35.27.63 0 .16-.11.7-.33 1.62-.2.74-.36 1.41-.48 2.01-.4 2.1-.6 3.5-.6 4.2 0 .42.05.72.15.9.1.16.26.24.48.24.3 0 .67-.3 1.11-.9.46-.6.94-1.51 1.44-2.73.52-1.22 1.02-2.72 1.5-4.5.16-.6.4-1.03.72-1.29.34-.26.84-.39 1.5-.39.46 0 .78.06.96.18.18.1.27.3.27.6 0 .5-.25 1.87-.75 4.11-.56 2.56-.84 4.14-.84 4.74 0 .38.08.68.24.9.16.2.37.3.63.3.4 0 .87-.24 1.41-.72.56-.5 1.3-1.3 2.22-2.4.24-.28.51-.42.81-.42.26 0 .46.12.6.36.16.24.24.57.24.99 0 .8-.19 1.42-.57 1.86-.86 1.06-1.79 1.93-2.79 2.61-.98.68-2.1 1.02-3.36 1.02-.96 0-1.67-.37-2.13-1.11-.44-.74-.66-1.78-.66-3.12-.34 1.36-.85 2.41-1.53 3.15-.68.72-1.41 1.08-2.19 1.08zm28.257-6.84c.26 0 .46.12.6.36.16.24.24.57.24.99 0 .8-.19 1.42-.57 1.86a13.71 13.71 0 01-2.91 2.61c-1.04.68-2.22 1.02-3.54 1.02-1.02 0-1.93-.19-2.73-.57-.78-.38-1.4-.92-1.86-1.62-1.14 1.44-2.49 2.16-4.05 2.16-1.1 0-1.97-.32-2.61-.96-.64-.64-.96-1.49-.96-2.55 0-1 .23-1.81.69-2.43.46-.62 1.11-.93 1.95-.93.72 0 1.08.27 1.08.81 0 .14-.02.39-.06.75-.06.72-.09 1.13-.09 1.23 0 .6.26.9.78.9.38 0 .74-.22 1.08-.66.36-.46.65-1.08.87-1.86.24-.78.36-1.64.36-2.58 0-.72-.09-1.32-.27-1.8-.18-.5-.4-.75-.66-.75-.22 0-.38.06-.48.18-.1.1-.2.28-.3.54-.12.32-.28.58-.48.78-.2.18-.55.27-1.05.27-.44 0-.79-.15-1.05-.45-.26-.32-.39-.8-.39-1.44 0-1.02.31-1.82.93-2.4.62-.58 1.42-.87 2.4-.87.84 0 1.6.21 2.28.63.68.4 1.2.99 1.56 1.77.6-.8 1.27-1.4 2.01-1.8.76-.4 1.5-.6 2.22-.6.78 0 1.37.18 1.77.54.42.36.63.94.63 1.74 0 .9-.17 1.61-.51 2.13-.34.5-.75.75-1.23.75-.44 0-.74-.09-.9-.27-.16-.18-.28-.44-.36-.78-.04-.24-.1-.42-.18-.54-.08-.12-.22-.18-.42-.18-.24 0-.5.23-.78.69-.26.44-.49 1.03-.69 1.77a9.74 9.74 0 00-.27 2.31c0 .94.22 1.67.66 2.19.46.5 1.08.75 1.86.75s1.51-.26 2.19-.78c.7-.54 1.51-1.37 2.43-2.49.24-.28.51-.42.81-.42zm1.479 6.84c-.9 0-1.64-.41-2.22-1.23-.56-.84-.84-1.88-.84-3.12 0-1.5.1-2.87.3-4.11.2-1.26.53-2.59.99-3.99.2-.6.48-1.03.84-1.29s.93-.39 1.71-.39c.44 0 .74.07.9.21.18.14.27.35.27.63 0 .16-.11.7-.33 1.62-.2.74-.36 1.41-.48 2.01-.4 2.1-.6 3.5-.6 4.2 0 .42.05.72.15.9.1.16.26.24.48.24.3 0 .67-.3 1.11-.9.46-.6.94-1.51 1.44-2.73.52-1.22 1.02-2.72 1.5-4.5.16-.6.4-1.03.72-1.29.34-.26.84-.39 1.5-.39.46 0 .78.06.96.18.18.1.27.3.27.6 0 .5-.25 1.87-.75 4.11-.56 2.56-.84 4.14-.84 4.74 0 .38.08.68.24.9.16.2.37.3.63.3.4 0 .87-.24 1.41-.72.56-.5 1.3-1.3 2.22-2.4.24-.28.51-.42.81-.42.26 0 .46.12.6.36.16.24.24.57.24.99 0 .8-.19 1.42-.57 1.86-.86 1.06-1.79 1.93-2.79 2.61-.98.68-2.1 1.02-3.36 1.02-.96 0-1.67-.37-2.13-1.11-.44-.74-.66-1.78-.66-3.12-.34 1.36-.85 2.41-1.53 3.15-.68.72-1.41 1.08-2.19 1.08zm13.857 0c-.9 0-1.64-.41-2.22-1.23-.56-.84-.84-1.88-.84-3.12 0-1.5.1-2.87.3-4.11.2-1.26.53-2.59.99-3.99.2-.6.48-1.03.84-1.29s.93-.39 1.71-.39c.44 0 .74.07.9.21.18.14.27.35.27.63 0 .16-.11.7-.33 1.62-.2.74-.36 1.41-.48 2.01-.4 2.1-.6 3.5-.6 4.2 0 .42.05.72.15.9.1.16.26.24.48.24.3 0 .67-.3 1.11-.9.46-.6.94-1.51 1.44-2.73.52-1.22 1.02-2.72 1.5-4.5.16-.6.4-1.03.72-1.29.34-.26.84-.39 1.5-.39.46 0 .78.06.96.18.18.1.27.3.27.6 0 .5-.25 1.87-.75 4.11-.56 2.56-.84 4.14-.84 4.74 0 .38.08.68.24.9.16.2.37.3.63.3.4 0 .87-.24 1.41-.72.56-.5 1.3-1.3 2.22-2.4.24-.28.51-.42.81-.42.26 0 .46.12.6.36.16.24.24.57.24.99 0 .8-.19 1.42-.57 1.86-.86 1.06-1.79 1.93-2.79 2.61-.98.68-2.1 1.02-3.36 1.02-.96 0-1.67-.37-2.13-1.11-.44-.74-.66-1.78-.66-3.12-.34 1.36-.85 2.41-1.53 3.15-.68.72-1.41 1.08-2.19 1.08zm3.24-16.11c-.92 0-1.73-.19-2.43-.57-.7-.38-1.24-.88-1.62-1.5-.38-.62-.57-1.28-.57-1.98 0-.5.16-.9.48-1.2.32-.32.73-.48 1.23-.48.52 0 .9.12 1.14.36.24.24.43.65.57 1.23.2.84.75 1.26 1.65 1.26.94 0 1.75-.26 2.43-.78.68-.54 1.17-1.19 1.47-1.95.16-.4.34-.68.54-.84.2-.18.46-.27.78-.27.3 0 .55.12.75.36.22.22.33.5.33.84l-.06.36c-.2.82-.57 1.62-1.11 2.4-.54.78-1.28 1.44-2.22 1.98-.94.52-2.06.78-3.36.78zm30.347-9.84c3.86 0 6.81 1.02 8.85 3.06 2.06 2.02 3.09 4.95 3.09 8.79 0 2.62-.44 5.01-1.32 7.17-.88 2.14-2.1 3.83-3.66 5.07-1.56 1.24-3.32 1.86-5.28 1.86-1.02 0-1.93-.1-2.73-.3-.78-.2-1.52-.48-2.22-.84-.7-.38-1.61-.93-2.73-1.65-.5 1.02-1.22 1.79-2.16 2.31-.94.52-2.06.78-3.36.78-1.48 0-2.57-.32-3.27-.96-.68-.66-1.02-1.56-1.02-2.7 0-1.22.42-2.21 1.26-2.97.84-.78 1.97-1.17 3.39-1.17.8 0 1.65.13 2.55.39.26-2.46.6-4.47 1.02-6.03.44-1.58 1.06-3.18 1.86-4.8.28-.58.61-1 .99-1.26s.85-.39 1.41-.39c.54 0 .96.11 1.26.33.3.22.45.51.45.87 0 .26-.07.52-.21.78-.46.84-.91 1.96-1.35 3.36-.42 1.4-.75 2.76-.99 4.08l-.18 1.02c-.24 1.42-.47 2.59-.69 3.51 1.06.58 2.11 1.04 3.15 1.38 1.06.32 2.01.48 2.85.48 1.32 0 2.47-.43 3.45-1.29 1-.86 1.77-2.07 2.31-3.63s.81-3.38.81-5.46c0-2.82-.63-4.92-1.89-6.3-1.26-1.38-3.17-2.07-5.73-2.07-1.6 0-3.21.24-4.83.72-1.6.48-3.07 1.15-4.41 2.01-.3.18-.57.27-.81.27-.34 0-.62-.13-.84-.39-.2-.28-.3-.65-.3-1.11 0-.48.08-.87.24-1.17.16-.3.43-.59.81-.87 1.28-.88 2.84-1.58 4.68-2.1 1.86-.52 3.71-.78 5.55-.78zm-11.34 23.49c.6 0 1.08-.14 1.44-.42.38-.3.67-.79.87-1.47-.8-.3-1.5-.45-2.1-.45-.5 0-.89.13-1.17.39-.26.26-.39.56-.39.9 0 .7.45 1.05 1.35 1.05zm40.706-6.9c.26 0 .46.13.6.39.14.26.21.59.21.99 0 .96-.29 1.53-.87 1.71-1.2.42-2.52.66-3.96.72-.38 1.68-1.13 3.03-2.25 4.05-1.12 1-2.39 1.5-3.81 1.5-1.2 0-2.23-.29-3.09-.87a5.566 5.566 0 01-1.92-2.31c-.44-.96-.66-2-.66-3.12 0-1.52.29-2.87.87-4.05.58-1.2 1.38-2.13 2.4-2.79a5.98 5.98 0 013.39-1.02c1.52 0 2.74.53 3.66 1.59.94 1.04 1.49 2.33 1.65 3.87.94-.06 2.06-.26 3.36-.6.16-.04.3-.06.42-.06zm-9.84 6.18c.64 0 1.19-.26 1.65-.78.48-.52.8-1.27.96-2.25-.62-.42-1.1-.97-1.44-1.65-.32-.68-.48-1.4-.48-2.16 0-.32.03-.64.09-.96h-.15c-.8 0-1.47.39-2.01 1.17-.52.76-.78 1.84-.78 3.24 0 1.1.21 1.94.63 2.52.44.58.95.87 1.53.87zm31.685-3.66c.26 0 .46.12.6.36.16.24.24.57.24.99 0 .82-.19 1.45-.57 1.89-.92 1.08-1.82 1.95-2.7 2.61-.86.66-1.81.99-2.85.99-1.06 0-1.82-.4-2.28-1.2-.46-.8-.69-1.96-.69-3.48 0-1.32.16-2.97.48-4.95h-.06c-.5.86-.97 1.83-1.41 2.91-.44 1.08-.93 2.36-1.47 3.84l-.51 1.35c-.22.6-.48 1.01-.78 1.23-.3.2-.66.3-1.08.3-.44 0-.76-.12-.96-.36-.2-.24-.38-.62-.54-1.14-.18-.6-.33-1.42-.45-2.46-.12-1.06-.18-2.13-.18-3.21 0-.66.03-1.29.09-1.89h-.06c-.5 1.94-.99 3.54-1.47 4.8-.48 1.24-1.13 2.26-1.95 3.06-.82.78-1.86 1.17-3.12 1.17-1.06 0-1.88-.37-2.46-1.11-.56-.74-.84-1.67-.84-2.79 0-1 .23-1.83.69-2.49.46-.68 1.11-1.02 1.95-1.02.8 0 1.2.27 1.2.81 0 .1-.01.18-.03.24-.16.96-.24 1.64-.24 2.04 0 .68.15 1.02.45 1.02.28 0 .56-.2.84-.6.28-.42.67-1.32 1.17-2.7.68-1.86 1.32-3.76 1.92-5.7.2-.62.49-1.07.87-1.35.4-.3.93-.45 1.59-.45.56 0 1.02.11 1.38.33.38.22.57.58.57 1.08 0 2.9.07 5.11.21 6.63h.06c.34-1.14.87-2.45 1.59-3.93.72-1.48 1.29-2.45 1.71-2.91.38-.4.76-.7 1.14-.9.4-.22.84-.33 1.32-.33.72 0 1.21.16 1.47.48.26.3.39.87.39 1.71 0 .46-.01.92-.03 1.38-.02.44-.04.85-.06 1.23-.08 1.48-.12 2.58-.12 3.3 0 1.14.08 1.91.24 2.31.16.4.46.6.9.6.8 0 1.81-1.05 3.03-3.15.22-.36.49-.54.81-.54z" fill="#EEE"/></g><path d="M19 66.622L132.335 8m.689.168l116 60" stroke="#EEE" stroke-width="3" stroke-linecap="round"/><circle cx="132" cy="38" r="12" fill="#EEE"/><path stroke="#EEE" stroke-width="2" d="M175 30V13m1 1h15m1-1v25"/><defs><filter id="filter0_d_9_13" x="54.109" y="57.2" width="160.692" height="34.25" filterUnits="userSpaceOnUse" color-interpolation-filters="sRGB"><feFlood flood-opacity="0" result="BackgroundImageFix"/><feColorMatrix in="SourceAlpha" values="0 0 0 0 0 0 0 0 0 0 0 0 0 0 0 0 0 0 127 0" result="hardAlpha"/><feOffset dy="4"/><feGaussianBlur stdDeviation="2"/><feComposite in2="hardAlpha" operator="out"/><feColorMatrix values="0 0 0 0 0 0 0 0 0 0 0 0 0 0 0 0 0 0 0.25 0"/><feBlend in2="BackgroundImageFix" result="effect1_dropShadow_9_13"/><feBlend in="SourceGraphic" in2="effect1_dropShadow_9_13" result="shape"/></filter></defs></svg>