<svg width="268" height="100" viewBox="0 0 268 100" fill="none" xmlns="http://www.w3.org/2000/svg">
<path d="M0 50C0 22.3858 22.3858 0 50 0H218C245.614 0 268 22.3858 268 50V50C268 77.6142 245.614 100 218 100H50C22.3858 100 0 77.6142 0 50V50Z" fill="#1F5482"/>
<g filter="url(#filter0_d_9_13)">
<path d="M82.2886 58.1C82.9086 58.22 83.3686 58.43 83.6686 58.73C83.9886 59.03 84.1486 59.38 84.1486 59.78C84.1486 60.44 83.9586 60.92 83.5786 61.22C83.2186 61.52 82.6386 61.64 81.8386 61.58C80.0386 61.44 78.6286 61.35 77.6086 61.31C76.6086 61.25 75.2886 61.21 73.6486 61.19C72.9086 64.87 72.2286 68.57 71.6086 72.29C71.3886 73.65 71.1586 75.23 70.9186 77.03C70.6786 78.81 70.5186 80.25 70.4386 81.35C70.3986 81.93 70.1586 82.38 69.7186 82.7C69.2786 83 68.7486 83.15 68.1286 83.15C67.4686 83.15 66.9586 82.99 66.5986 82.67C66.2386 82.35 66.0586 81.93 66.0586 81.41C66.0586 80.93 66.1286 80.14 66.2686 79.04C66.4286 77.92 66.6086 76.75 66.8086 75.53C67.0286 74.31 67.1986 73.25 67.3186 72.35C67.5386 70.83 67.7886 69.32 68.0686 67.82C68.3486 66.32 68.6286 64.9 68.9086 63.56C68.9686 63.26 69.0386 62.92 69.1186 62.54C69.1986 62.14 69.2886 61.7 69.3886 61.22C67.4286 61.28 65.8886 61.44 64.7686 61.7C63.6486 61.96 62.8486 62.33 62.3686 62.81C61.9086 63.27 61.6786 63.87 61.6786 64.61C61.6786 65.29 61.8786 65.94 62.2786 66.56C62.3586 66.7 62.3986 66.85 62.3986 67.01C62.3986 67.39 62.1686 67.75 61.7086 68.09C61.2686 68.41 60.8086 68.57 60.3286 68.57C59.9886 68.57 59.7086 68.47 59.4886 68.27C59.0886 67.93 58.7586 67.45 58.4986 66.83C58.2386 66.19 58.1086 65.47 58.1086 64.67C58.1086 62.97 58.6586 61.61 59.7586 60.59C60.8786 59.55 62.5686 58.79 64.8286 58.31C67.1086 57.83 70.0286 57.59 73.5886 57.59C75.7886 57.59 77.5386 57.63 78.8386 57.71C80.1586 57.79 81.3086 57.92 82.2886 58.1ZM81.5684 83.15C80.6684 83.15 79.9284 82.74 79.3484 81.92C78.7884 81.08 78.5084 80.04 78.5084 78.8C78.5084 77.3 78.6084 75.93 78.8084 74.69C79.0084 73.43 79.3384 72.1 79.7984 70.7C79.9984 70.1 80.2784 69.67 80.6384 69.41C80.9984 69.15 81.5684 69.02 82.3484 69.02C82.7884 69.02 83.0884 69.09 83.2484 69.23C83.4284 69.37 83.5184 69.58 83.5184 69.86C83.5184 70.02 83.4084 70.56 83.1884 71.48C82.9884 72.22 82.8284 72.89 82.7084 73.49C82.3084 75.59 82.1084 76.99 82.1084 77.69C82.1084 78.11 82.1584 78.41 82.2584 78.59C82.3584 78.75 82.5184 78.83 82.7384 78.83C83.0384 78.83 83.4084 78.53 83.8484 77.93C84.3084 77.33 84.7884 76.42 85.2884 75.2C85.8084 73.98 86.3084 72.48 86.7884 70.7C86.9484 70.1 87.1884 69.67 87.5084 69.41C87.8484 69.15 88.3484 69.02 89.0084 69.02C89.4684 69.02 89.7884 69.08 89.9684 69.2C90.1484 69.3 90.2384 69.5 90.2384 69.8C90.2384 70.3 89.9884 71.67 89.4884 73.91C88.9284 76.47 88.6484 78.05 88.6484 78.65C88.6484 79.03 88.7284 79.33 88.8884 79.55C89.0484 79.75 89.2584 79.85 89.5184 79.85C89.9184 79.85 90.3884 79.61 90.9284 79.13C91.4884 78.63 92.2284 77.83 93.1484 76.73C93.3884 76.45 93.6584 76.31 93.9584 76.31C94.2184 76.31 94.4184 76.43 94.5584 76.67C94.7184 76.91 94.7984 77.24 94.7984 77.66C94.7984 78.46 94.6084 79.08 94.2284 79.52C93.3684 80.58 92.4384 81.45 91.4384 82.13C90.4584 82.81 89.3384 83.15 88.0784 83.15C87.1184 83.15 86.4084 82.78 85.9484 82.04C85.5084 81.3 85.2884 80.26 85.2884 78.92C84.9484 80.28 84.4384 81.33 83.7584 82.07C83.0784 82.79 82.3484 83.15 81.5684 83.15ZM109.826 76.31C110.086 76.31 110.286 76.43 110.426 76.67C110.586 76.91 110.666 77.24 110.666 77.66C110.666 78.46 110.476 79.08 110.096 79.52C109.216 80.56 108.246 81.43 107.186 82.13C106.146 82.81 104.966 83.15 103.646 83.15C102.626 83.15 101.716 82.96 100.916 82.58C100.136 82.2 99.5158 81.66 99.0558 80.96C97.9158 82.4 96.5658 83.12 95.0058 83.12C93.9058 83.12 93.0358 82.8 92.3958 82.16C91.7558 81.52 91.4358 80.67 91.4358 79.61C91.4358 78.61 91.6658 77.8 92.1258 77.18C92.5858 76.56 93.2358 76.25 94.0758 76.25C94.7958 76.25 95.1558 76.52 95.1558 77.06C95.1558 77.2 95.1358 77.45 95.0958 77.81C95.0358 78.53 95.0058 78.94 95.0058 79.04C95.0058 79.64 95.2658 79.94 95.7858 79.94C96.1658 79.94 96.5258 79.72 96.8658 79.28C97.2258 78.82 97.5158 78.2 97.7358 77.42C97.9758 76.64 98.0958 75.78 98.0958 74.84C98.0958 74.12 98.0058 73.52 97.8258 73.04C97.6458 72.54 97.4258 72.29 97.1658 72.29C96.9458 72.29 96.7858 72.35 96.6858 72.47C96.5858 72.57 96.4858 72.75 96.3858 73.01C96.2658 73.33 96.1058 73.59 95.9058 73.79C95.7058 73.97 95.3558 74.06 94.8558 74.06C94.4158 74.06 94.0658 73.91 93.8058 73.61C93.5458 73.29 93.4158 72.81 93.4158 72.17C93.4158 71.15 93.7258 70.35 94.3458 69.77C94.9658 69.19 95.7658 68.9 96.7458 68.9C97.5858 68.9 98.3458 69.11 99.0258 69.53C99.7058 69.93 100.226 70.52 100.586 71.3C101.186 70.5 101.856 69.9 102.596 69.5C103.356 69.1 104.096 68.9 104.816 68.9C105.596 68.9 106.186 69.08 106.586 69.44C107.006 69.8 107.216 70.38 107.216 71.18C107.216 72.08 107.046 72.79 106.706 73.31C106.366 73.81 105.956 74.06 105.476 74.06C105.036 74.06 104.736 73.97 104.576 73.79C104.416 73.61 104.296 73.35 104.216 73.01C104.176 72.77 104.116 72.59 104.036 72.47C103.956 72.35 103.816 72.29 103.616 72.29C103.376 72.29 103.116 72.52 102.836 72.98C102.576 73.42 102.346 74.01 102.146 74.75C101.966 75.49 101.876 76.26 101.876 77.06C101.876 78 102.096 78.73 102.536 79.25C102.996 79.75 103.616 80 104.396 80C105.176 80 105.906 79.74 106.586 79.22C107.286 78.68 108.096 77.85 109.016 76.73C109.256 76.45 109.526 76.31 109.826 76.31ZM111.305 83.15C110.405 83.15 109.665 82.74 109.085 81.92C108.525 81.08 108.245 80.04 108.245 78.8C108.245 77.3 108.345 75.93 108.545 74.69C108.745 73.43 109.075 72.1 109.535 70.7C109.735 70.1 110.015 69.67 110.375 69.41C110.735 69.15 111.305 69.02 112.085 69.02C112.525 69.02 112.825 69.09 112.985 69.23C113.165 69.37 113.255 69.58 113.255 69.86C113.255 70.02 113.145 70.56 112.925 71.48C112.725 72.22 112.565 72.89 112.445 73.49C112.045 75.59 111.845 76.99 111.845 77.69C111.845 78.11 111.895 78.41 111.995 78.59C112.095 78.75 112.255 78.83 112.475 78.83C112.775 78.83 113.145 78.53 113.585 77.93C114.045 77.33 114.525 76.42 115.025 75.2C115.545 73.98 116.045 72.48 116.525 70.7C116.685 70.1 116.925 69.67 117.245 69.41C117.585 69.15 118.085 69.02 118.745 69.02C119.205 69.02 119.525 69.08 119.705 69.2C119.885 69.3 119.975 69.5 119.975 69.8C119.975 70.3 119.725 71.67 119.225 73.91C118.665 76.47 118.385 78.05 118.385 78.65C118.385 79.03 118.465 79.33 118.625 79.55C118.785 79.75 118.995 79.85 119.255 79.85C119.655 79.85 120.125 79.61 120.665 79.13C121.225 78.63 121.965 77.83 122.885 76.73C123.125 76.45 123.395 76.31 123.695 76.31C123.955 76.31 124.155 76.43 124.295 76.67C124.455 76.91 124.535 77.24 124.535 77.66C124.535 78.46 124.345 79.08 123.965 79.52C123.105 80.58 122.175 81.45 121.175 82.13C120.195 82.81 119.075 83.15 117.815 83.15C116.855 83.15 116.145 82.78 115.685 82.04C115.245 81.3 115.025 80.26 115.025 78.92C114.685 80.28 114.175 81.33 113.495 82.07C112.815 82.79 112.085 83.15 111.305 83.15ZM125.162 83.15C124.262 83.15 123.522 82.74 122.942 81.92C122.382 81.08 122.102 80.04 122.102 78.8C122.102 77.3 122.202 75.93 122.402 74.69C122.602 73.43 122.932 72.1 123.392 70.7C123.592 70.1 123.872 69.67 124.232 69.41C124.592 69.15 125.162 69.02 125.942 69.02C126.382 69.02 126.682 69.09 126.842 69.23C127.022 69.37 127.112 69.58 127.112 69.86C127.112 70.02 127.002 70.56 126.782 71.48C126.582 72.22 126.422 72.89 126.302 73.49C125.902 75.59 125.702 76.99 125.702 77.69C125.702 78.11 125.752 78.41 125.852 78.59C125.952 78.75 126.112 78.83 126.332 78.83C126.632 78.83 127.002 78.53 127.442 77.93C127.902 77.33 128.382 76.42 128.882 75.2C129.402 73.98 129.902 72.48 130.382 70.7C130.542 70.1 130.782 69.67 131.102 69.41C131.442 69.15 131.942 69.02 132.602 69.02C133.062 69.02 133.382 69.08 133.562 69.2C133.742 69.3 133.832 69.5 133.832 69.8C133.832 70.3 133.582 71.67 133.082 73.91C132.522 76.47 132.242 78.05 132.242 78.65C132.242 79.03 132.322 79.33 132.482 79.55C132.642 79.75 132.852 79.85 133.112 79.85C133.512 79.85 133.982 79.61 134.522 79.13C135.082 78.63 135.822 77.83 136.742 76.73C136.982 76.45 137.252 76.31 137.552 76.31C137.812 76.31 138.012 76.43 138.152 76.67C138.312 76.91 138.392 77.24 138.392 77.66C138.392 78.46 138.202 79.08 137.822 79.52C136.962 80.58 136.032 81.45 135.032 82.13C134.052 82.81 132.932 83.15 131.672 83.15C130.712 83.15 130.002 82.78 129.542 82.04C129.102 81.3 128.882 80.26 128.882 78.92C128.542 80.28 128.032 81.33 127.352 82.07C126.672 82.79 125.942 83.15 125.162 83.15ZM128.402 67.04C127.482 67.04 126.672 66.85 125.972 66.47C125.272 66.09 124.732 65.59 124.352 64.97C123.972 64.35 123.782 63.69 123.782 62.99C123.782 62.49 123.942 62.09 124.262 61.79C124.582 61.47 124.992 61.31 125.492 61.31C126.012 61.31 126.392 61.43 126.632 61.67C126.872 61.91 127.062 62.32 127.202 62.9C127.402 63.74 127.952 64.16 128.852 64.16C129.792 64.16 130.602 63.9 131.282 63.38C131.962 62.84 132.452 62.19 132.752 61.43C132.912 61.03 133.092 60.75 133.292 60.59C133.492 60.41 133.752 60.32 134.072 60.32C134.372 60.32 134.622 60.44 134.822 60.68C135.042 60.9 135.152 61.18 135.152 61.52L135.092 61.88C134.892 62.7 134.522 63.5 133.982 64.28C133.442 65.06 132.702 65.72 131.762 66.26C130.822 66.78 129.702 67.04 128.402 67.04ZM158.749 57.2C162.609 57.2 165.559 58.22 167.599 60.26C169.659 62.28 170.689 65.21 170.689 69.05C170.689 71.67 170.249 74.06 169.369 76.22C168.489 78.36 167.269 80.05 165.709 81.29C164.149 82.53 162.389 83.15 160.429 83.15C159.409 83.15 158.499 83.05 157.699 82.85C156.919 82.65 156.179 82.37 155.479 82.01C154.779 81.63 153.869 81.08 152.749 80.36C152.249 81.38 151.529 82.15 150.589 82.67C149.649 83.19 148.529 83.45 147.229 83.45C145.749 83.45 144.659 83.13 143.959 82.49C143.279 81.83 142.939 80.93 142.939 79.79C142.939 78.57 143.359 77.58 144.199 76.82C145.039 76.04 146.169 75.65 147.589 75.65C148.389 75.65 149.239 75.78 150.139 76.04C150.399 73.58 150.739 71.57 151.159 70.01C151.599 68.43 152.219 66.83 153.019 65.21C153.299 64.63 153.629 64.21 154.009 63.95C154.389 63.69 154.859 63.56 155.419 63.56C155.959 63.56 156.379 63.67 156.679 63.89C156.979 64.11 157.129 64.4 157.129 64.76C157.129 65.02 157.059 65.28 156.919 65.54C156.459 66.38 156.009 67.5 155.569 68.9C155.149 70.3 154.819 71.66 154.579 72.98L154.399 74C154.159 75.42 153.929 76.59 153.709 77.51C154.769 78.09 155.819 78.55 156.859 78.89C157.919 79.21 158.869 79.37 159.709 79.37C161.029 79.37 162.179 78.94 163.159 78.08C164.159 77.22 164.929 76.01 165.469 74.45C166.009 72.89 166.279 71.07 166.279 68.99C166.279 66.17 165.649 64.07 164.389 62.69C163.129 61.31 161.219 60.62 158.659 60.62C157.059 60.62 155.449 60.86 153.829 61.34C152.229 61.82 150.759 62.49 149.419 63.35C149.119 63.53 148.849 63.62 148.609 63.62C148.269 63.62 147.989 63.49 147.769 63.23C147.569 62.95 147.469 62.58 147.469 62.12C147.469 61.64 147.549 61.25 147.709 60.95C147.869 60.65 148.139 60.36 148.519 60.08C149.799 59.2 151.359 58.5 153.199 57.98C155.059 57.46 156.909 57.2 158.749 57.2ZM147.409 80.69C148.009 80.69 148.489 80.55 148.849 80.27C149.229 79.97 149.519 79.48 149.719 78.8C148.919 78.5 148.219 78.35 147.619 78.35C147.119 78.35 146.729 78.48 146.449 78.74C146.189 79 146.059 79.3 146.059 79.64C146.059 80.34 146.509 80.69 147.409 80.69ZM188.115 73.79C188.375 73.79 188.575 73.92 188.715 74.18C188.855 74.44 188.925 74.77 188.925 75.17C188.925 76.13 188.635 76.7 188.055 76.88C186.855 77.3 185.535 77.54 184.095 77.6C183.715 79.28 182.965 80.63 181.845 81.65C180.725 82.65 179.455 83.15 178.035 83.15C176.835 83.15 175.805 82.86 174.945 82.28C174.105 81.7 173.465 80.93 173.025 79.97C172.585 79.01 172.365 77.97 172.365 76.85C172.365 75.33 172.655 73.98 173.235 72.8C173.815 71.6 174.615 70.67 175.635 70.01C176.655 69.33 177.785 68.99 179.025 68.99C180.545 68.99 181.765 69.52 182.685 70.58C183.625 71.62 184.175 72.91 184.335 74.45C185.275 74.39 186.395 74.19 187.695 73.85C187.855 73.81 187.995 73.79 188.115 73.79ZM178.275 79.97C178.915 79.97 179.465 79.71 179.925 79.19C180.405 78.67 180.725 77.92 180.885 76.94C180.265 76.52 179.785 75.97 179.445 75.29C179.125 74.61 178.965 73.89 178.965 73.13C178.965 72.81 178.995 72.49 179.055 72.17H178.905C178.105 72.17 177.435 72.56 176.895 73.34C176.375 74.1 176.115 75.18 176.115 76.58C176.115 77.68 176.325 78.52 176.745 79.1C177.185 79.68 177.695 79.97 178.275 79.97ZM209.96 76.31C210.22 76.31 210.42 76.43 210.56 76.67C210.72 76.91 210.8 77.24 210.8 77.66C210.8 78.48 210.61 79.11 210.23 79.55C209.31 80.63 208.41 81.5 207.53 82.16C206.67 82.82 205.72 83.15 204.68 83.15C203.62 83.15 202.86 82.75 202.4 81.95C201.94 81.15 201.71 79.99 201.71 78.47C201.71 77.15 201.87 75.5 202.19 73.52H202.13C201.63 74.38 201.16 75.35 200.72 76.43C200.28 77.51 199.79 78.79 199.25 80.27L198.74 81.62C198.52 82.22 198.26 82.63 197.96 82.85C197.66 83.05 197.3 83.15 196.88 83.15C196.44 83.15 196.12 83.03 195.92 82.79C195.72 82.55 195.54 82.17 195.38 81.65C195.2 81.05 195.05 80.23 194.93 79.19C194.81 78.13 194.75 77.06 194.75 75.98C194.75 75.32 194.78 74.69 194.84 74.09H194.78C194.28 76.03 193.79 77.63 193.31 78.89C192.83 80.13 192.18 81.15 191.36 81.95C190.54 82.73 189.5 83.12 188.24 83.12C187.18 83.12 186.36 82.75 185.78 82.01C185.22 81.27 184.94 80.34 184.94 79.22C184.94 78.22 185.17 77.39 185.63 76.73C186.09 76.05 186.74 75.71 187.58 75.71C188.38 75.71 188.78 75.98 188.78 76.52C188.78 76.62 188.77 76.7 188.75 76.76C188.59 77.72 188.51 78.4 188.51 78.8C188.51 79.48 188.66 79.82 188.96 79.82C189.24 79.82 189.52 79.62 189.8 79.22C190.08 78.8 190.47 77.9 190.97 76.52C191.65 74.66 192.29 72.76 192.89 70.82C193.09 70.2 193.38 69.75 193.76 69.47C194.16 69.17 194.69 69.02 195.35 69.02C195.91 69.02 196.37 69.13 196.73 69.35C197.11 69.57 197.3 69.93 197.3 70.43C197.3 73.33 197.37 75.54 197.51 77.06H197.57C197.91 75.92 198.44 74.61 199.16 73.13C199.88 71.65 200.45 70.68 200.87 70.22C201.25 69.82 201.63 69.52 202.01 69.32C202.41 69.1 202.85 68.99 203.33 68.99C204.05 68.99 204.54 69.15 204.8 69.47C205.06 69.77 205.19 70.34 205.19 71.18C205.19 71.64 205.18 72.1 205.16 72.56C205.14 73 205.12 73.41 205.1 73.79C205.02 75.27 204.98 76.37 204.98 77.09C204.98 78.23 205.06 79 205.22 79.4C205.38 79.8 205.68 80 206.12 80C206.92 80 207.93 78.95 209.15 76.85C209.37 76.49 209.64 76.31 209.96 76.31Z" fill="#EEEEEE"/>
</g>
<path d="M19 66.6217L132.335 8" stroke="#EEEEEE" stroke-width="3" stroke-linecap="round"/>
<path d="M133.024 8.16766L249.024 68.1679" stroke="#EEEEEE" stroke-width="3" stroke-linecap="round"/>
<circle cx="132" cy="38" r="12" fill="#EEEEEE"/>
<line x1="175" y1="30" x2="175" y2="13" stroke="#EEEEEE" stroke-width="2"/>
<line x1="176" y1="14" x2="191" y2="14" stroke="#EEEEEE" stroke-width="2"/>
<line x1="192" y1="13" x2="192" y2="38" stroke="#EEEEEE" stroke-width="2"/>
<defs>
<filter id="filter0_d_9_13" x="54.1086" y="57.2" width="160.692" height="34.25" filterUnits="userSpaceOnUse" color-interpolation-filters="sRGB">
<feFlood flood-opacity="0" result="BackgroundImageFix"/>
<feColorMatrix in="SourceAlpha" type="matrix" values="0 0 0 0 0 0 0 0 0 0 0 0 0 0 0 0 0 0 127 0" result="hardAlpha"/>
<feOffset dy="4"/>
<feGaussianBlur stdDeviation="2"/>
<feComposite in2="hardAlpha" operator="out"/>
<feColorMatrix type="matrix" values="0 0 0 0 0 0 0 0 0 0 0 0 0 0 0 0 0 0 0.25 0"/>
<feBlend mode="normal" in2="BackgroundImageFix" result="effect1_dropShadow_9_13"/>
<feBlend mode="normal" in="SourceGraphic" in2="effect1_dropShadow_9_13" result="shape"/>
</filter>
</defs>
</svg>
