<svg width="75" height="75" viewBox="0 0 75 75" fill="none" xmlns="http://www.w3.org/2000/svg">
<circle cx="37.5" cy="37.5" r="36" stroke="#1F5482" stroke-width="3"/>
<g opacity="0.2">
<path opacity="0.2" d="M54.4062 21.8125H43.4688V54.625H54.4062V21.8125Z" fill="#1F5482"/>
</g>
<path d="M57.5312 53.0625H55.9688V21.8125C55.9687 21.3981 55.8041 21.0007 55.5111 20.7077C55.2181 20.4146 54.8206 20.25 54.4062 20.25H43.4688C43.0543 20.25 42.6569 20.4146 42.3639 20.7077C42.0709 21.0007 41.9063 21.3981 41.9062 21.8125V29.625H32.5312C32.1169 29.625 31.7194 29.7896 31.4264 30.0827C31.1334 30.3757 30.9688 30.7731 30.9688 31.1875V39H21.5938C21.1794 39 20.7819 39.1646 20.4889 39.4577C20.1959 39.7507 20.0313 40.1481 20.0312 40.5625V53.0625H18.4688C18.0543 53.0625 17.6569 53.2271 17.3639 53.5201C17.0709 53.8132 16.9062 54.2106 16.9062 54.625C16.9062 55.0394 17.0709 55.4368 17.3639 55.7299C17.6569 56.0229 18.0543 56.1875 18.4688 56.1875H57.5312C57.9457 56.1875 58.3431 56.0229 58.6361 55.7299C58.9291 55.4368 59.0938 55.0394 59.0938 54.625C59.0938 54.2106 58.9291 53.8132 58.6361 53.5201C58.3431 53.2271 57.9457 53.0625 57.5312 53.0625ZM34.0938 32.75H41.9062V53.0625H34.0938V32.75ZM23.1562 42.125H30.9688V53.0625H23.1562V42.125ZM45.0312 53.0625V23.375H52.8438V53.0625H45.0312Z" fill="#1F5482"/>
</svg>
