<svg width="75" height="75" viewBox="0 0 75 75" fill="none" xmlns="http://www.w3.org/2000/svg">
<g clip-path="url(#clip0_56_63)">
<path d="M58.75 36.6406H57.8906C58.6719 35.3906 59.1406 33.5937 59.1406 31.4844C59.1406 27.5781 57.5 24.6094 55.3906 24.6094H20.8594C18.6719 24.6094 17.1094 27.5781 17.1094 31.4844C17.1094 33.5937 17.5781 35.3906 18.3594 36.6406H16.25C14.0625 36.6406 12.5 39.6094 12.5 43.5156C12.5 47.4219 14.1406 50.3906 16.25 50.3906H25H58.6719C60.8594 50.3906 62.4219 47.4219 62.4219 43.5156C62.4219 39.6094 60.8594 36.6406 58.75 36.6406ZM55.3125 26.3281C56.1719 26.3281 57.3438 28.3594 57.3438 31.4844C57.3438 34.6094 56.1719 36.6406 55.3125 36.6406H25H23.3594C23.3594 36.6406 23.4375 36.5625 23.4375 36.4844C23.5156 36.4063 23.5156 36.3281 23.5938 36.25C23.6719 36.1719 23.6719 36.0938 23.75 36.0156C23.8281 35.9375 23.8281 35.8594 23.9062 35.7031C23.9062 35.625 23.9844 35.5469 23.9844 35.4688C23.9844 35.3906 24.0625 35.2344 24.0625 35.1562C24.0625 35.0781 24.1406 35 24.1406 34.8438C24.1406 34.7656 24.2188 34.6094 24.2188 34.5313C24.2188 34.4531 24.2969 34.375 24.2969 34.2187C24.2969 34.0625 24.375 33.9844 24.375 33.8281C24.375 33.75 24.4531 33.6719 24.4531 33.5156C24.4531 33.3594 24.5312 33.2812 24.5312 33.125C24.5312 33.0469 24.5312 32.9688 24.5312 32.8125C24.5312 32.6562 24.5312 32.5 24.6094 32.3437C24.6094 32.2656 24.6094 32.1875 24.6094 32.1094C24.6094 31.875 24.6094 31.6406 24.6094 31.3281C24.6094 31.0938 24.6094 30.8594 24.6094 30.5469C24.6094 30.4688 24.6094 30.3906 24.6094 30.3125C24.6094 30.1562 24.6094 30 24.5312 29.8438C24.5312 29.7656 24.5312 29.6875 24.5312 29.5312C24.5312 29.375 24.5312 29.2969 24.4531 29.1406C24.4531 29.0625 24.4531 28.9844 24.375 28.8281C24.375 28.6719 24.2969 28.5937 24.2969 28.4375C24.2969 28.3594 24.2188 28.2812 24.2188 28.125C24.2188 28.0469 24.1406 27.8906 24.1406 27.8125C24.1406 27.7344 24.0625 27.6563 24.0625 27.5C24.0625 27.4219 23.9844 27.2656 23.9844 27.1875C23.9844 27.1094 23.9062 27.0312 23.9062 26.9531C23.8281 26.875 23.8281 26.7969 23.75 26.6406C23.75 26.5625 23.6719 26.4844 23.5938 26.4062C23.5156 26.3281 23.5156 26.25 23.4375 26.1719C23.4375 26.0938 23.3594 26.0937 23.3594 26.0156H55.3125V26.3281ZM27.0312 43.5156C27.0312 46.6406 25.7812 48.6719 25 48.6719C24.2188 48.6719 22.9688 46.6406 22.9688 43.5156C22.9688 40.3906 24.1406 38.3594 25 38.3594C25.8594 38.3594 27.0312 40.3906 27.0312 43.5156ZM18.75 31.4844C18.75 28.3594 20 26.3281 20.7812 26.3281C21.5625 26.3281 22.8125 28.3594 22.8125 31.4844C22.8125 34.6094 21.6406 36.6406 20.7812 36.6406C20 36.6406 18.75 34.6094 18.75 31.4844ZM14.2188 43.5156C14.2188 40.3906 15.4688 38.3594 16.25 38.3594C17.0312 38.3594 18.2812 40.3906 18.2812 43.5156C18.2812 46.6406 17.0312 48.6719 16.25 48.6719C15.4688 48.6719 14.2188 46.7188 14.2188 43.5156ZM18.9062 48.5938C18.9844 48.5156 18.9844 48.4375 19.0625 48.3594C19.1406 48.2813 19.1406 48.2031 19.2188 48.125C19.2969 48.0469 19.2969 47.9688 19.375 47.8125C19.375 47.7344 19.4531 47.6563 19.4531 47.5781C19.4531 47.5 19.5312 47.3438 19.5312 47.2656C19.5312 47.1875 19.6094 47.1094 19.6094 46.9531C19.6094 46.875 19.6875 46.7188 19.6875 46.6406C19.6875 46.5625 19.7656 46.4844 19.7656 46.3281C19.7656 46.1719 19.8437 46.0938 19.8437 45.9375C19.8437 45.8594 19.9219 45.7813 19.9219 45.625C19.9219 45.4688 20 45.3906 20 45.2344C20 45.1563 20 45.0781 20 44.9219C20 44.7656 20 44.6094 20.0781 44.4531C20.0781 44.375 20.0781 44.2969 20.0781 44.2187C20.0781 43.9844 20.0781 43.75 20.0781 43.4375C20.0781 43.125 20.0781 42.9687 20.0781 42.6562C20.0781 42.5781 20.0781 42.5 20.0781 42.4219C20.0781 42.2656 20.0781 42.1094 20 41.9531C20 41.875 20 41.7969 20 41.6406C20 41.4844 20 41.4062 19.9219 41.25C19.9219 41.1719 19.9219 41.0938 19.8437 40.9375C19.8437 40.7813 19.7656 40.7031 19.7656 40.5469C19.7656 40.4688 19.6875 40.3906 19.6875 40.2344C19.6875 40.1562 19.6094 40 19.6094 39.9219C19.5313 40 19.5312 39.9219 19.4531 39.8438C19.4531 39.7656 19.375 39.6094 19.375 39.5312C19.375 39.4531 19.2969 39.375 19.2969 39.2969C19.2188 39.2187 19.2188 39.1406 19.1406 38.9844C19.1406 38.9063 19.0625 38.8281 18.9844 38.75C18.9062 38.6719 18.9063 38.5937 18.8281 38.5156C18.8281 38.4375 18.75 38.4375 18.75 38.3594H20.7812H22.4219C21.6406 39.6094 21.1719 41.4062 21.1719 43.5156C21.1719 45.625 21.6406 47.4219 22.4219 48.6719H18.8281L18.9062 48.5938ZM58.75 48.6719H27.5781C27.5781 48.6719 27.6562 48.5937 27.6562 48.5156C27.7344 48.4375 27.7344 48.3594 27.8125 48.2812C27.8125 48.2031 27.8906 48.125 27.8906 48.0469C27.9688 47.9688 27.9688 47.8906 28.0469 47.7344C28.0469 47.6562 28.125 47.5781 28.125 47.5C28.2031 47.4219 28.2031 47.2656 28.2031 47.1875C28.2031 47.1094 28.2813 47.0312 28.2813 46.9531C28.2813 46.875 28.3594 46.7187 28.3594 46.5625C28.3594 46.4844 28.4375 46.4062 28.4375 46.3281C28.4375 46.1719 28.5156 46.0938 28.5156 45.9375C28.5156 45.8594 28.5156 45.7813 28.5938 45.625C28.5938 45.4688 28.6719 45.3125 28.6719 45.2344C28.6719 45.1563 28.6719 45.0781 28.6719 45C28.6719 44.8437 28.6719 44.6875 28.75 44.5312C28.75 44.4531 28.75 44.375 28.75 44.2969C28.75 44.0625 28.75 43.8281 28.75 43.5156C28.75 43.2031 28.75 43.0469 28.75 42.7344C28.75 42.6562 28.75 42.5781 28.75 42.5C28.75 42.3438 28.75 42.1875 28.6719 42.0312C28.6719 41.9531 28.6719 41.875 28.6719 41.7969C28.6719 41.6406 28.6719 41.4844 28.5938 41.4062C28.5938 41.3281 28.5938 41.25 28.5156 41.0937C28.5156 40.9375 28.4375 40.8594 28.4375 40.7031C28.4375 40.625 28.3594 40.5469 28.3594 40.4687C28.3594 40.3125 28.2813 40.2344 28.2813 40.0781C28.2813 40 28.2031 39.9219 28.2031 39.8438C28.2031 39.7656 28.125 39.6094 28.125 39.5312C28.125 39.4531 28.0469 39.375 28.0469 39.2969C27.9688 39.2187 27.9688 39.0625 27.8906 38.9844C27.8906 38.9063 27.8125 38.8281 27.8125 38.75C27.7344 38.6719 27.7344 38.5937 27.6562 38.5156L27.5781 38.4375H55.3125H58.6719C59.5312 38.4375 60.7031 40.4687 60.7031 43.5938C60.7031 46.7188 59.5312 48.6719 58.75 48.6719Z" fill="#1F5482"/>
<path d="M26.7969 29.4531H31.7187L34.5312 30.3906C34.6094 30.3906 34.6875 30.4688 34.7656 30.4688C34.9219 30.4688 35 30.4687 35.1562 30.3906L37.0312 29.5312H41.4062C41.875 29.5312 42.2656 29.1406 42.2656 28.6719C42.2656 28.2031 41.875 27.8125 41.4062 27.8125H36.875C36.7187 27.8125 36.6406 27.8125 36.4844 27.8906L34.7656 28.75L32.1875 27.8906C32.1094 27.8906 32.0312 27.8125 31.9531 27.8125H26.875C26.4063 27.8125 26.0156 28.2031 26.0156 28.6719C26.0156 29.1406 26.3281 29.4531 26.7969 29.4531Z" fill="#1F5482"/>
<path d="M46.0937 29.4531H52.8906C53.3594 29.4531 53.75 29.0625 53.75 28.5937C53.75 28.125 53.3594 27.7344 52.8906 27.7344H46.0937C45.625 27.7344 45.2344 28.125 45.2344 28.5937C45.2344 29.0625 45.625 29.4531 46.0937 29.4531Z" fill="#1F5482"/>
<path d="M26.7969 34.8437H37.5C37.9688 34.8437 38.3594 34.4531 38.3594 33.9844C38.3594 33.5156 37.9688 33.125 37.5 33.125H26.7969C26.3281 33.125 25.9375 33.5156 25.9375 33.9844C25.9375 34.4531 26.3281 34.8437 26.7969 34.8437Z" fill="#1F5482"/>
<path d="M40.5469 33.9063C40.5469 34.375 40.9375 34.7657 41.4062 34.7657H44.2187C44.2969 34.7657 44.375 34.7657 44.4531 34.7657L48.125 33.6719L49.7656 34.6875C49.9219 34.7657 50.0781 34.8438 50.2344 34.8438H53.9844C54.4531 34.8438 54.8438 34.4532 54.8438 33.9844C54.8438 33.5157 54.4531 33.125 53.9844 33.125H50.4687L48.6719 32.0313C48.4375 31.875 48.2031 31.875 47.9688 31.9532L44.0625 33.125H41.4062C40.9375 33.0469 40.5469 33.4375 40.5469 33.9063Z" fill="#1F5482"/>
<path d="M31.0937 41.7188H36.0156L38.8281 42.6563C38.9062 42.6563 38.9844 42.7344 39.0625 42.7344C39.2187 42.7344 39.2969 42.7344 39.4531 42.6563L41.3281 41.7969H45.625C46.0938 41.7969 46.4844 41.4063 46.4844 40.9375C46.4844 40.4688 46.0938 40.0781 45.625 40.0781H41.0937C40.9375 40.0781 40.8594 40.0781 40.7031 40.1563L38.9844 41.0156L36.4062 40.1563C36.3281 40.1563 36.25 40.0781 36.1719 40.0781H31.0937C30.625 40.0781 30.2344 40.4688 30.2344 40.9375C30.2344 41.4063 30.625 41.7188 31.0937 41.7188Z" fill="#1F5482"/>
<path d="M50.3906 41.7187H57.1875C57.6563 41.7187 58.0469 41.3281 58.0469 40.8594C58.0469 40.3906 57.6563 40 57.1875 40H50.3906C49.9219 40 49.5312 40.3906 49.5312 40.8594C49.5312 41.3281 49.9219 41.7187 50.3906 41.7187Z" fill="#1F5482"/>
<path d="M41.7188 45.3906H31.0937C30.625 45.3906 30.2344 45.7813 30.2344 46.25C30.2344 46.7188 30.625 47.1094 31.0937 47.1094H41.7969C42.2656 47.1094 42.6563 46.7188 42.6563 46.25C42.6563 45.7813 42.1875 45.3906 41.7188 45.3906Z" fill="#1F5482"/>
<path d="M58.2031 45.3907H54.6875L52.8906 44.2969C52.6563 44.1407 52.4219 44.1407 52.1875 44.2188L48.2813 45.3907H45.625C45.1563 45.3907 44.7656 45.7813 44.7656 46.25C44.7656 46.7188 45.1563 47.1094 45.625 47.1094H48.4375C48.5156 47.1094 48.5938 47.1094 48.6719 47.1094L52.3438 46.0157L53.9844 47.0313C54.1406 47.1094 54.2969 47.1875 54.4531 47.1875H58.2031C58.6719 47.1875 59.0625 46.7969 59.0625 46.3282C59.0625 45.8594 58.75 45.3907 58.2031 45.3907Z" fill="#1F5482"/>
</g>
<circle cx="37.5" cy="37.5" r="36" stroke="#1F5482" stroke-width="3"/>
<defs>
<clipPath id="clip0_56_63">
<rect width="50" height="50" fill="white" transform="translate(12.5 12.5)"/>
</clipPath>
</defs>
</svg>
