<!-- Generated by IcoMoon.io -->
<svg version="1.1" xmlns="http://www.w3.org/2000/svg" width="1024" height="1024" viewBox="0 0 1024 1024">
<title></title>
<g id="icomoon-ignore">
</g>
<path fill="#fff" d="M832 1024h-672c-35.36 0-64-28.672-64-64v-768c0-35.36 28.64-64 64-64v768c0 35.328 28.672 64 64 64h128c35.36 0 64-28.672 64-64v-768h416c35.36 0 64 28.672 64 64v768c0 35.328-28.64 64-64 64zM672 928h64v-64h-64v64zM672 832h64v-64h-64v64zM672 736h64v-64h-64v64zM672 640h64v-64h-64v64zM576 928h64v-64h-64v64zM576 832h64v-64h-64v64zM576 736h64v-64h-64v64zM576 640h64v-64h-64v64zM832 224c0-17.696-14.304-32-32-32h-288c-17.664 0-32 14.304-32 32v128c0 17.664 14.336 32 32 32h288c17.696 0 32-14.336 32-32v-128zM832 576h-64v64h64v-64zM832 672h-64v64h64v-64zM832 768h-64v64h64v-64zM832 864h-64v64h64v-64zM352 928h-128c-17.664 0-32-14.304-32-32v-800c0-17.696 14.336-32 32-32h62.016v-64h33.984v64h32c17.664 0 32 14.304 32 32v800c0 17.696-14.336 32-32 32z"></path>
</svg>
